/* XPM */
static char *_b4f2b4fb75f463da5024bbb31949d94qjX2m0cBWOHwk3ti[] = {
/* columns rows colors chars-per-pixel */
"64 64 252 2 ",
"   c #6B8724",
".  c #6F8B26",
"X  c #A6420D",
"o  c #719224",
"O  c #6E8926",
"+  c #6E8826",
"@  c #6F9023",
"#  c #65811F",
"$  c #68851F",
"%  c #6B8A21",
"&  c #739326",
"*  c #718E27",
"=  c #A5410D",
"-  c #320805",
";  c #77962B",
":  c #739029",
">  c #6D8D22",
",  c #688122",
"<  c #69881F",
"1  c #6F8D24",
"2  c #833012",
"3  c #832509",
"4  c #6C8326",
"5  c #759626",
"6  c #66831F",
"7  c #8A2D0E",
"8  c #6C8124",
"9  c #6F8627",
"0  c #759129",
"q  c #698423",
"w  c #77942B",
"e  c #7F280D",
"r  c #893111",
"t  c #738A2A",
"y  c #6C8B21",
"u  c #79972C",
"i  c #9C3D11",
"p  c #973810",
"a  c #6F8C27",
"s  c #627C1E",
"d  c #771F09",
"f  c #BF601B",
"g  c #68861F",
"h  c #E0953A",
"j  c #A94A17",
"k  c #617B1E",
"l  c #731B07",
"z  c #470F07",
"x  c #A6430C",
"c  c #7B9C2C",
"v  c #AE7264",
"b  c #728B27",
"n  c #9E4418",
"m  c #5F781D",
"M  c #2A0505",
"N  c #7D250C",
"B  c #A0471B",
"V  c #D2A98E",
"C  c #822D10",
"Z  c #7B992C",
"A  c #637F1D",
"S  c #72872B",
"D  c #A75328",
"F  c #5F751E",
"G  c #78250E",
"H  c #9B4118",
"J  c #BA5C1D",
"K  c #AD4F1A",
"L  c #718D28",
"P  c #9C3A0F",
"I  c #667E22",
"U  c #A14010",
"Y  c #872A0C",
"T  c #953610",
"R  c #6D8525",
"E  c #7B952F",
"W  c #400E08",
"Q  c #6A7D23",
"!  c #8F310F",
"~  c #7D1E06",
"^  c #822A0E",
"/  c #667C23",
"(  c #390A06",
")  c #7B2C13",
"_  c #AF5825",
"`  c #769926",
"'  c #748D2A",
"]  c #AE531C",
"[  c #698023",
"{  c #D4812B",
"}  c #D37F2B",
"|  c #7D9E2D",
" . c #768E2B",
".. c #C0631B",
"X. c #64210E",
"o. c #CF792C",
"O. c #A54E22",
"+. c #78912F",
"@. c #6D7E28",
"#. c #D58639",
"$. c #893A22",
"%. c #943D18",
"&. c #58190A",
"*. c #C5702C",
"=. c #853416",
"-. c #411811",
";. c #813721",
":. c #7D2108",
">. c #531409",
",. c #998E5C",
"<. c #8C3312",
"1. c #677A21",
"2. c #6B1807",
"3. c #657623",
"4. c #8B432B",
"5. c #9D655B",
"6. c #4D1C10",
"7. c #C46B24",
"8. c #BE6626",
"9. c #C9752A",
"0. c #903511",
"q. c #7C8F34",
"w. c #6E210D",
"e. c #421E17",
"r. c #D98B40",
"t. c #778C2D",
"y. c #70812A",
"u. c #A23E0E",
"i. c #913816",
"p. c #78634B",
"a. c #6E2811",
"s. c #4C160A",
"d. c #899149",
"f. c #6F700D",
"g. c #80A02F",
"h. c #5E721F",
"j. c #A54513",
"k. c #B55E28",
"l. c #AA5B2F",
"z. c #65630A",
"x. c #8D3D1A",
"c. c #8B371C",
"v. c #DEB497",
"b. c #9D8353",
"n. c #809735",
"m. c #984421",
"M. c #631507",
"N. c #5A1F10",
"B. c #A34918",
"V. c #822007",
"C. c #DC8F37",
"Z. c #939355",
"A. c #8B8850",
"S. c #7C830D",
"D. c #D47D2A",
"F. c #B6632C",
"G. c #929751",
"H. c #9E8959",
"J. c #C67535",
"K. c #D88933",
"L. c #C5783B",
"P. c #595923",
"I. c #8A9B44",
"U. c #9F4A1F",
"Y. c #828A42",
"T. c #B96A35",
"R. c #868D10",
"E. c #8E9210",
"W. c #DFB699",
"Q. c #BE6C2A",
"!. c #A9B10F",
"~. c #AA976C",
"^. c #E19E56",
"/. c #592A1C",
"(. c #AD9D6E",
"). c #C46520",
"_. c #B65618",
"`. c #BF723E",
"'. c #9D625A",
"]. c #8C795D",
"[. c #A36438",
"{. c #331311",
"}. c #615C0A",
"|. c #902506",
" X c #914B30",
".X c #5D453B",
"XX c #50322B",
"oX c #706319",
"OX c #78321B",
"+X c #856C4C",
"@X c #90825B",
"#X c #9B4D2D",
"$X c #CE7D32",
"%X c #5D6125",
"&X c #596821",
"*X c #829D36",
"=X c #5B3F37",
"-X c #CE7A0D",
";X c #675043",
":X c #45241F",
">X c #D9924A",
",X c #90980C",
"<X c #452F1F",
"1X c #B9703A",
"2X c #E4A764",
"3X c #A17145",
"4X c #C87E46",
"5X c #672E1F",
"6X c #C4804F",
"7X c #B27C49",
"8X c #82870B",
"9X c #5B6F1C",
"0X c #BB876C",
"qX c #853E28",
"wX c #798534",
"eX c #DA9743",
"rX c #6C5947",
"tX c #6F5E31",
"yX c #9E5939",
"uX c #9BA20D",
"iX c #7B4C26",
"pX c #9B975C",
"aX c #817752",
"sX c #767B08",
"dX c #82A330",
"fX c #979B1C",
"gX c #7C7E0D",
"hX c #876621",
"jX c #68592D",
"kX c #E8B076",
"lX c #CE854D",
"zX c #A05728",
"xX c #CC895F",
"cX c #DA9D6B",
"vX c #47451B",
"bX c #DFA980",
"nX c #5F4019",
"mX c #ECBE8D",
"MX c #877B36",
"NX c #AF7455",
"BX c #614C3A",
"VX c #637028",
"CX c #543A33",
"ZX c #CA7229",
"AX c #E09845",
"SX c #A2A814",
"DX c #B57F60",
"FX c #342615",
"GX c #6C7931",
"HX c #A17A5C",
"JX c #CB750F",
"KX c #91932C",
/* pixels */
"c @ o o ` g.g.` < # . R   * 0 O g y , s 6 > c . $ R 6 g y o o < > 5 u g.dX5 s A o 5 @ a   % * @ # m 6 > $ # y & : 5 % + * * a 0 ",
"c c 5 o ` | g.` g s # 6 # g   , < @ g I q   u w  . .9 # s h.&X%X%X&Xh.  > < 6 O w c : E u & & * g s A k A < * 0 w > 6   q . : 0 ",
"u c | g.` 5 c ` % $ 6 6 6   * < > ; | 0 +.w ; Z w 3.%XjXp.3X7X7X7X7X3X+XtXP.&X4  .g.*X*Xw * * L   y 1 A k 4 MXwXo a $ + 9 0 ; c ",
"o 5 g.g.  # 5 ` @ < % O * : w & ; c g.| dXc / %XtX+X7XL.T._ O.B.B.B.K k.T.1X3XhXjXVX .g.: 6 g y % > c * , b.xX[.b : b +.+.' . @ ",
"# % Z | $ , 5 ` @ > O L + + * > @ L q 1 [ %X+X7X1X_ D O.j j K K K K j j j.H B _ 1X3XtXVXO 1 # O w 1 w : MX1X.._.hX/ 8 0 u w a   ",
"9 . 5 ` > # <   A a % * , I 4 I 6 > 9XP.+X6XF.H U _ l.m.2 w.&.>.>.&.X.a.c.B j n P B.T.3XtX&XR w Z . 1 : iXi.<.e OXQ g % 0 c @ > ",
"w Z 5 > g A # h.9Xq % & o . R / I &Xp.DXF.%.u.] U.;.6.- M M M M M M M M M ( N.=.j j p B T.[.P.R c . . @.FX4.U.x./.[ & + b Z @ o ",
"b o o g # < y A k 6 % . * o a F P.HX4XH p K U.5X-.M - z &.w.) 2 2 C G w.&.W M M z =.K j.! O.T.jXF # I @.FX[.#.*.nXI   + O @ @ o ",
"t b w @ % y %   q % % . . > < vX3X1XY U ] =.e.{.W X.r O.J 7.9.$X$Xo.*.J j p e >.- M &.n ] 7 %.1XvXm I S FX/.iXiX<X/ F R , % ` c ",
"b ' E . O > @ & @ 5 o b   y $ vXzX=.i.] a.{.{.X.0.k.lX>Xh h K.r.h h $X#.K.*.K i ) z M W %.K G D <XF # +.@X].].].A.+.S t , # 5 ` ",
"O ' ' . * y 0 0 * ; u : , % F nXD N K a.{.W ) O.xX2XAXh { _ p Q.h C.n %.k.K.#.J X i.&.M W H 0.%.iXP.$ O ' E I.I.E u w q A A ; 5 ",
"w w : : w : ' b b 0 / P.P.P.jXyX) T c.-.-.G l.bXkXh h *.H _ B L.h C.n _ n H $XC.8.j.i.>.M >.T e zXiXP.%X%XP.9 u 0 w 5   m k E w ",
"Z 0 & E u Z u u : & vX5XyX[.yXC ~ 3 s.{.X.D bXkXh h Q.H 6X^.B.L.h C.n Q.>X_ p J.C.f X <.z M w.! e m.zX[.#X6.&Xu u 0 u > , R +.t.",
". : w  .0 w 5 ; & *XrXz ~ V.~ V.:.>.M z %.cXmXAXh 9.H xXbX#.B.L.h C.n ..2XcXk.i $XK.] U w.- - w.<.C Y 7 w.-.aX* a   & 5 @ + + 4 ",
"  o u u * . : a a w ,.CX( z s.6.e.{.W G 6XmX^.h K.n 6XmXL.7.B L.C.K.H 8.^.>Xr.K B K.7.j.Y M.- {.6.6.s.W -.p.pX. , q . 0 a . , [ ",
"| 5 @ 0 0 * * t % q q.@X{.z N.N.6.e.2.D bX^.h h k.l.mX2X8.8.n J.{ o.i 8.>X{ } 7.i F.o.J p e e.-.N./.>.M ;X(.E E ; ; L 9 / + I 3.",
"g.5 y + [ k a w 1 O * d.:X2.=.#X5X:XN xX2Xh h #.n cX2Xh F.8.n J.{ o.i 8.r.} } 7.] H *.f _.! /.5X#Xc.3 ( p.*Xw u c c & 6 m R b b ",
"g.& o 1 6 k a u : % . d.<X2.3 #X5XW  XkXAXh h 8.l.^.h h k.f n J.{ o.i 8.K.} } *.] i ] ..f B s./.#Xe V.W +Xn.L L w w * , I + 0 1 ",
"| 5 & 5 > , q 1 @ 1 % d.XXM.~ i.&.- [.kXh h C.O.4X^.h h _ J n J.{ o.i 8.} D.} 9.j j i f ..K W >.p d V.W ].n.L O + 4 : +.+ 4 : < ",
"# g O : @ o 5 w w & > I.=XX.3 %.&.- NX2XC.C.$XB 4XF._ ] i ] H J.} o.i J J K j B.p j.T 8.7.] z z T :.3 -.@Xn.0 L , /   + q , * q ",
"m > * * ` ` u 0   k g I..XX.Y B N.- 0X^.{ { Q.i ] j j.j.U p 0.L.} o.p i j j j.U i T %.T.7.] z z T N r -.@XE * b Q 4 , s [ 8 O + ",
"$ 5 5 o c 5 w O k F # I..XX.Y n X.- 0X>XD.{ *.O.D D D D D D l.#.D.o.O.U.O.D D D D l.[.`...] z z T N r e.,.Z ' + 8 O O S t Q s . ",
"$ 1 & o ; w : . : : q n..XN.^ n X.- 0X>XD.} #.r.r.r.#.#.#.#.#.{ } } #.#.#.#.#.#.L.J.*.).J B z z T N r e.,.w + O   6 A R E . k , ",
"y o o < +  .: w g.| < q.BXN.C H X.- 0Xr.D.} D.o.o.9.9.9.9.ZXZXo.} } o.9.9.9.9.*.F.J _.J K P z z p N 2 :XZ.@ O L   s k # * w I h.",
"A < 1 a q L u | dXdX5 t.;XN.C H a.- 0Xr.D.} *.c.x.=.=.2 2 2 ) D { o.%.) ) C =.;.=.G G H x p z s.p N 2 :XG.< O L a , , 6 q . / 9X",
", # a : 6 & | c ; & 5 n.rXN.C %.a.- DXr.D.} Q.2 `.lX6X4X6X`.c.zX{ o.2 B T.`.`.`.1Xk.C m.x p W s.p e C XXG.6 q # y a . : E ' q   ",
"m m % @ 6 @ c c * 6 > *Xp.6.7 %.a.- NXr.D.} Q.C 4X^.>Xr.$Xk.<.l.{ o.C D cXlXJ.*.F._ 2 U.X p W >.p e ) XXG.& 1 g g O : c g.Z +.n.",
"F 3.O & 5 & w u % s < Z p.6.7 i.) - NXr.9.o.Q.C J.r.} } Q.O.=.l.ZX7.C O.lX7.f f B.j 2 O.X p W &.p e ) XXG.@ a q   a ' u 0 R t E ",
"m q * 1 w u % O y A A . +X6.! 0.) - [.$X7.7.8.2 *.#.} { F.B =.l...f e O.L...f ..n B 2 O.X 0.( &.T e G =XG.> *   & & ' ' t 4 R   ",
"# O . q E g.` @ y < $ % aXe.<.<.=.- yX*.k.J J C 7.} D.D.D B 2 l...J N j *.f f ..%.B 2 O.X 0.( &.0.^ a.=Xd.>     o . t S t 8 / A ",
". O + O E | | @ s s 6 > aX-.<.<.=.-  X*.K _.] e ).7.).).H n 2 l...J G j 7.f f f i.B ) D X ! ( N.! Y X..XI.& % 1   1.R + O + [ 8 ",
"; c Z +.w w @ % s A @ Z A.e.r r c.- 4.7.J f ] e f ..f f %.n C D ..J G j ).f f f r B ) D X r ( X.! Y N.;XI.w   g A m s + 0 E S 4 ",
"g.| ` o $ 1 > 1 y < & & A.e.2 2 x.- ;.7.f ..] e J f f f 0.H C D ..J G B.J f f J ^ B ) D X 7 ( w.! Y s.rXn.% # A , * * L E +. . .",
"5 a > % m A y c ` > @ @ A.e.2 C %.- OX8.f ).J ) U.<.r r G i.G D ..J G n i.r 2 2 d %.) D X ^ - w.7 7 s.p.q.y < y 0 & . + . q b u ",
"& y < A 9Xm % c 5 $ q * A.:X2 C H - a.8.$XeXeXF.^ 7 7 ^ e d M.U._.j w.G <.<.r ^ d 2.w.O.X e - G C 7 s.p.q.q q . 5 & 9 8 9 O u | ",
"* @ > g # q < < g # F R d.<X) ^ H - N.9.eX^.eXr.l.#X#X X X X4.U.X U ) OX;.;.$.$.qXqX4.D X N - ) ^ r s.+X@.F I < 1 : t S  .+.E : ",
"$   : 5 * q < < < k m O Y.XX) ^ n ( >.9.K.C.-X{ o.9.L.J.*.*.Q.] X X K _ _ _ _ _ _ ] K j j.G - C ^ <.-.].y.F q ' w  .8 t w +.' , ",
"  s # w w & & o o k m $ Y.CXa.^ n W z Q.K.-X-X-X..k.8.).J _.j = = = u.u.u.= u.i P P P P P w.- 2 e <.-.@Xt I R t.E q.S S O 0 Z u ",
"@ g < 5 ; c o o Z % # , Y..XX.^ n z W j { -X-XJXj.H n j.U P P i i i i i i i i p p p p T |.M.( 2 e <.-.H.+.R R S S y.S ' , a Z *X",
"0 . o @ 1 : A k   > $ 6 Y.BXN.^ H s.( V.j ....K Y e p U U U = = = = = = = = X x X X x P |.M.( r N r e.,.q.S + t S y.y.t . w w ; ",
"E + < g A 6 s k k < A m GX;X6.^ %.&.( d ~ 3 Y N ^ i x x X X X = = = = X X X = X x = u.T |.M.( <.N 2 :X,.S 4 s R t.t 8 4 a ; w b ",
"Z 9 R $ g y y O [ y g 4 y.p.6.C i.X.( r i i.c.) e Y ^ e 3 3 e T x = 7 e e e N N N e N |.|.>.W ! N C <X,.9 , F / 9 S R 9 9 ' b , ",
"n.w o * ; ` > * * * 1 >  .+X-.2 0.a.- r K j n d <.x.%.m.m.%.G i.x = d 7 %.H m.m.m.0.G ! |.>.z ! :.G XX,.  . O 4 1.@.R Q 1.y.8 k ",
"n.Z ` * u Z % L b O ' y L aX-.r r a.- =.K j.P d T.`.] _ _ K e m.x U d H 4XF.k._ O.U G i.|.z s.! :.w.=XZ.6 a &   k S 9 1.1.4 9 8 ",
"R 4 * @ Z ` < # q . L + 9 ].-.r ^ ) - OXj X P d _ _ u.= p p e B x U d %.T.x = u.! p ) T 3 z >.7 :.X..XG.q 4   6 I 4 1./ [ 9 9 Q ",
"Q m q < y @ g 6 q a 0 1 . @Xe.=.e 2 M a.j.= P d ] K = X T 0.e U.x U d p k.= X u.Y T ) T :.W &.Y :.&.;Xd.[ Q / m 1.4 8 b 9 R y.3.",
"< 6 , A 9XA g %   a w * 0 ,.:Xx.=.c.- X.U X P d j j = X ! ! e B x U d p _ = X u.3 7 OX0.:.( X.! r 6.rXd.+ + , F m 9 t S 9 t q.@.",
"6 % > 1 s ,   # R : u 1 . pXXX;.2 4.- &.U = P d B.j = X 7 7 N B x U d T K = X i d V.;.<.d ( OXY 7 /.p.d.t.+.4 [ t +.t.t + t.n.t.",
"s 6 1 & . O 0 . ' w w b + Z.=X4.$.m.( >.u.X P d j.j.= X Y 7 G B x U d 0.j = X p l V.;.r l ( ;.c.c./.+XwXI 4 [ I ' t.S b S t n.q.",
"q q a > s q : +.& * % . > Z.=XqX$.i.W z P X P l H U = = e 7 G B x U l 0.X = X T l :.;.7 2.- ^ c.c.6.].3.3.q q 4 t.t.4 + t +.q.y.",
"*   % > # 1 * ' 0 @ % [ % G.CXa.3 r z W T X P l P i U U G 7 G B x U l ! U = = ! l ~ ;.7 2.( ~ d V.-.].VX[ R b '  .+.S R 8 9 R / ",
". q @ @ > & a 4 . o > I y G..XX.N 2 s.- 0.x P l ! N G G 2.N w.B.x U l 7 ^ N :.l 2.l $.i.X.( V.l ~ -.@X3., 9 S 4 t +.t 4 @.Q Q / ",
"  q @ @ o g A I O w a , 1 I.;XN.e C &.- 2 X P 2.2.l l l 2.2.2.n u.i 2.2.l l l 2.2.M.4.x.N.W V.l l e.,.t a O 4 8 , 9 y.8 3.3.1.[ ",
"g y 1 @ o # # + . : 8 / . I.rX6.C e X.M w.! ! 2 ;.qX4.4.4.4. Xm.Y Y 2 ;.$.qX4.4.4. XyXr z z V.x.hXBX,.*  .y.3.[ I 4 8 # m I , 6 ",
"# , [ O u 5 1 + 9 t @./   q.p.6.2 G X.M M.Y Y 7 7 7 7 7 ! 7 7 Y 3 3 Y 7 7 r r <.x.x.r 3 W /.x.E.!.fXKXt.Q h.3.4 q + I # # 4 8   ",
"6 # s q 0 Z g 1.@.Q Q m R fXtXe.=.OXX.M &.:.:.3 3 3 3 3 3 3 3 3 3 3 3 3 3 3 3 r r ^ 3 d nXSXfXE.uX!.!.SXR.h.I 8 y L [ m F k F 4 ",
"% k k @ & 5 % 8 @.9 ' R E.!.E.gXhXoXnX<X>.d 2.d l :.:.:.:.:.:.:.~ :.:.:.:.:.^ 2 C :.~ w.f.8XE.!.!.!.SXuXfX1.Q Q > : S @./ s s b ",
"8 F F . . '  .8 Q t E !.,XR.R.E.E.8Xf.z.5X;.OX;.;.$.;.x.x.$.$.$.$.$.$.$.$.4.4.4.$.$.$.;.}.f.R.E.S.S.8XgXsXR.R.Q 6 S @.@.@.[   u ",
"8 m k 4 9 t t.@.Q 8 S.R.E.uXSXuXR.f.z.MXV v.v.v.v.W.W.W.W.W.v.v.v.v.v.v.v.W.v.v.v.v.v.v.H.oXf.f.8X,X,XE.gXsXS.S.1.Q 3.8 9 , q t ",
"& g s 1.y.t. .Q Q S.S.,XuX,XR.8X8Xf.MXV V V V V V V V V V V V V V V V V V V V V V V V V V H.}.f.gXS.sXS.S.f.f.sXf.3.3.k I F s q ",
"L . < S Z.(.A.oXoXoXf.f.z.z.}.}.}.}.HXv v v v v v v v v v v v v v v v v v v v v v v v v v DXoX}.}.z.z.z.z.z.z.z.z.oXA.Z.y.4 .   ",
"a : 1  .d.Z.pX,.,.,.H.H.H.H.b.b.b.b.v 5.5.5.5.5.5.5.5.5.5.5.'.'.'.'.'.'.'.5.5.'.'.5.5.5.5.v b.b.b.b.b.b.H.H.H.b.A.d.Z.Y.GX9   I ",
"+ O O L O 8 + q O t 4 @.wXq.Y.d.d.d.G.G.A.,.,.,.~.~.~.~.~.(.(.(.~.(.(.(.~.~.(.~.~.pX,.,.Z.pXZ.A.Y.Y.wXY.q.t.@.1.y.b 8 h.h.1.h.F ",
"> q 9 O q q q m # < A h.s   s k s 6 5 y m Q 3.3., + , q [ t Z a / S q.O / / : + m h.&Xm k 4 # k s 1.h.Q   [ I 6 A I 1.9XQ 1.9XF "
};
