/* XPM */
static char *_4ca17001d5f40d9d277b8f1c4d66d78k9DVVFgFr0M2DZKC[] = {
/* columns rows colors chars-per-pixel */
"64 64 48 1 ",
"  c #6F8C28",
". c #678124",
"X c #647920",
"o c #6C8928",
"O c #709122",
"+ c #6C8A22",
"@ c #769628",
"# c #748E29",
"$ c #63821B",
"% c #698525",
"& c #6E8623",
"* c #73912C",
"= c #729424",
"- c #697E23",
"; c #5C761C",
": c #738A27",
"> c #5A721B",
", c #7B9A2E",
"< c #67851E",
"1 c #6D8E20",
"2 c #789229",
"3 c #5E7A1B",
"4 c #769A23",
"5 c #617D1C",
"6 c #7B8E30",
"7 c #71872D",
"8 c #6F832A",
"9 c #7B972F",
"0 c #7B9D2A",
"q c #637D24",
"w c #647420",
"e c #67891C",
"r c #788A2F",
"t c #83A232",
"y c #7A9232",
"u c #606E20",
"i c #576D18",
"p c #6D8221",
"a c #839B36",
"s c #57671B",
"d c #789530",
"f c #7EA12D",
"g c #829533",
"h c #6B7926",
"j c #707E28",
"k c #87A934",
"l c #87A03B",
"z c #4E5D16",
/* pixels */
"f<==4ff4e5d.o*, $1.Xe+k.<p$e+O=$e4*tk0;3=@O qe @5><@<5e@o0+%@*o@",
",t@e@ff4$;5%5<$q<@5;.30d:68.oy <@ *f=$q%,f.9t=@ +;5>5+d*913#3o #",
"900k04f4ee$.5.d$+=k#g9d9k92+f+*a# o< e1t8kll** *.O*3;<%=1o$&-0,t",
"=4fk5>441$ o@=,=,lktft1@0t6pt42a 9d*%Okt,d9t1;+1<ek*$$;O4,#yg&%O",
"3<,k3-f4=O%*&&O1= >1kf403Xu:9+t#+=@o##fd1olkd=>%f%,o:O.*-uh,99 .",
"8&Of=5e*;@$d;w7X3OX.e<44=#X1t1= 33<.y2#3 ylt@279a%e0tO9aa&$<Of11",
"9f0ee;$sz %04 7>&@f0=*$e4@O-jf+<oq:%a*;77.8of O@toy-y916&Of%8ke@",
"&=O$3+=$5<+& @17hh9Oe41&,O:6p#jd #&7,6ra91:0@0*10;;7y#&67*<o +11",
":p,=+1<%-e<#++eqsjt0=fkfOO&fr6ry&a2X2r6d d20O,O5$.Xd#yj**.z#X1ff",
"#:l.o1101fO:&O3$$#=*@4%@#::O@2yhp,22666+19#  ,,$z.3dtfdltd7yp;44",
"<#7 *<92+,d*;+@0e2=eeiXX9fa6:29:r#ldoga,<oO@#<o;. $o.+la ,,Xe3tO",
"d9*o,o:&: ,f#.%.whO3<%$+O@at&299a6ggr6l,%.ta9%>d@5Oo15*9+d4+iia2",
"t =a@l,f O@d2@3z&<=$>2&@400082gjw&66ratow-t#yo+t 1%o-q ,t t<.7,r",
"o#,82@=,*f4--g&io2<e@p&244f=pgldg6a6:l*d21p-%#rahX 9<qoe*q@4=.o-",
"3=,fo.@oo=O:69f$2t=1=19,#:#19999tgr##:78:-&*#grg#8pOe*do;q+9 *q&",
"k4e*,@*81378@,%41t05r:,@5of2-O4 0:-##r&wpy2#g6la. Xd4f#a,f&7u2;u",
"t=e&Xi ,+odoOO>@,0t4=@2:25:r78:#, 27gj6ryg2gagl75#&;*fd,,f4<>p22",
"to= <>df*<#%@9oy,$5e5427#@ttg-:,#*#hd:larg##g:6yq%ww:2oo,d ;X#21",
"k0=01-3+11&+5+,:&.*aO4$9:,4Oe+2,%=p&-X:ygkadg9,@,.XX=,oo7qda#X,$",
"3$.@+=0d,0+0;30t4*q:43%@<p2O$1= +<.+:d &lkf&g:1tfeOO+92*.w++%3@-",
"i= of4d@&>%0$; , 9t:.-91O;5.,o#e=%3o #6ar9O2,4e$$O>o%y+2w7-ipj=&",
"<f0+fO,o>s30-iij0p#pwp:&eX&2<q&>.:q..qhag8X9@#+;+f<dt,r:X*16:h>2",
"5+O=,dO&2,.2dO$22y-:#<Xp+&l0<:%52j77sy6ujatO@1@9X:+.@9.:o<5-t >&",
"O@45&6#*tt31#1$gg9a:24.70p#1Od#.>ww3s: s- 8,O$=d*5i* O%*%;;$#tqi",
";eo*q dtkk05.5e:2p2 4OX&:Xs3O5..zs>;7:5ujd004=, >s>dk5**O-p$;#qs",
"o$ 0;0f0*O01g#O#66tp@==9h6ap3>&Xuw<>twX>6y4$O l@@+@k=;%>O*o#a&5+",
";>+=;+f4*5e0at@psh#:23>+62@6w;$$ .XX*dyglr92*;qfk9+900=+<%*tkkda",
";u:=f=9te>14@f3ep:2r&.X-g&3p;$4O@szwX8gO,*t:<<+0-y$oye 5%#70#w8a",
">o21#,5.O33$+o;O4+2w#0d,2:@  +7#%>s8q6h#O%a2#o#kpao *19.0@#:r8 <",
"5#*3gk4=11e<Oiz0*%<%0@201:. ,qi;1@hud,& ss6lg #y#*i>qO.q4+r8#-w5",
"#.-&90k1;w$$+yqO=@@q=Oop&,.-a>+#t15i2.q&ww:r&:6o7:h-24<@+u#:&o-&",
"*tfy99<1;3=0l9*%1o&*i&.;p6X-X&0a6wu&%o#6a*7u::Xauq::,a.+5i>&#l8-",
"kt4=5@1 1$01*o*.,.:&iXs:&&w9##fa3.o7ff.X+  y6-s97<,ko+35X0@:tyy2",
"=.1=i$<ff+OO$#.7*Oo 1pu##27%9:@tuuhz%d*qo; a*>*8q29#<O+19O+& 3&9",
"4ee3s>ek45%9+;:@O=**OXXp&X6%8r7#o*r#-o*5#w2q78*y.ah31%%o0@ph&&0t",
"#=1$$ e$$es86,>5%frj 5;h9j-7ggp--2Xq3*a@%-:3s.59*7p+i>q<e2#8y6a*",
"$&90*Xe<+3>,; i-y:>8 3w6ar56p 8o@ X=<>y,f#Xur*3--u21Xu%296wy9*:>",
"+>;d@=414i>1;@ jhu%.e<+a8w*g8-rw=+%k.q6adoss8ayyss8q Xo6ga88o2t0",
"@e$0@t==k+..hk2sh8# $u*%%277jjjj%<i3>ss.X.wuiaty68&ay%%8rhr9>+4l",
"*&0O+,;>%=<+%j#i.2@.&2y.& Xhwj8wj.$;3>o*< 87%8,y6dq667 6jjj6 ,2@",
"ap<e;$;X>+3;zs-<:#8o><&:Xpw6hrhr2 @#d5$q%oq7*ha,.,-8883&yyh- ,,:",
"tX7$$112w=$r;>pXujr7%7*+j9%o.:j6y,.w9odsiy -ruod.5$#8$sX77&#%2:-",
"g@O#0fe 2= Oe.h>8j8:du#.&@  8g2X..6#h--z goq.X$O8O2h # 7wh&Xwjp;",
"atf<g0$9#.y+e*oX:wX>&X+O %15Xf7uu+&4;35-9o78o78s3 g-$ 0+>26wX8:p",
"&X@+ff<3-O+7->3iXy%iw:X&o92@;87,p.yk5$167:#sXq*o=0l9.p&eq7uX-:7-",
"hi7eO=<$. 91+i7 q $.o6u8-w2a8hsXr-925% 7sw&wz8#q;;aX-hX;XrX,&-8u",
"1<q5z5<Ooo9+9*;5;5iu%:hy+>=rr8;@:prho0@0*uXiz.q>5e-#%o<ii&68p#gh",
"$1O@;.o;p f+.ldo.#r#%yuj&u%.15.t=.h804; o3ga>i..l<wy6lj8*g6::7lr",
";$+,do,o#,,:&-+ 8*-sXu-:,X3$oX$O1e%*o .9f 9.%3i#8-9;q-.>26j28pl6",
"%.*1iq*y@ $#=3;d4 Xz;hg 21. =3i:i.->;*.-yq%;.8u.i&#zh%.-6r-+:ggh",
"@%$@;@ 6=11w+OX**>w8yyw.&*-*>XX>i@>;0q-+.9=oo 7*7#sz:%#9#y7&-8%X",
"#q411,*q:O=>*1>%q>2a9q*&$5>#O*g#$8O=43s<4O3@5w-i%aus%prX arpjjpX",
"+q=14$3X7,*.*O.5;#%qysX3s1i6@;r*qi#@13$$3;oe3&dioq:#  8&q8h:uuwp",
"<O=1=;q +@Xw*19%%8hz%>8@O13;<i%.yoqo+<44Oiz;1%6qq%X=gru%Xop<i%.$",
"q.Xol4=#82jqo%4oghwiq-=O1$us>oq;o%-X-;$1 %q3$>oi;#$5hsu7. X<+78 ",
"$<3X#t5ujwh>. 73X785.7#*Xsuhj8i#3i.-86**7.O 3>O%;X<owuo-1*q>s5s8",
"=;X4@4e8j8,-;s-$u- sqyg.iXou55u#..  .ossq5t539<tX-28->-wOd78q.;#",
"8>sd%rd-w9#<#iwX86*%o.6wzw*w&>a85Xg*$->-,e1$%w>:u8X:#p:.<rjhjq<t",
"j>q%7:yhpXXq;j:$#.;1=78wuuwuX>>$s.#w8%;$$>% rs;;%+ O5u.iipu:7o%7",
"0e;wjr2-w8  X-X.5$>><>87hX&hX$;+3Xzs7q&@3sqqgiX.-X@e1Xru-hu;%s;%",
"oo+$r*=0&+1;e.i>q+i>;iwrrusrp5% 7>s:%#%@$36X22iqw+43e>57r& %i7@%",
" 9 O-80O<15iX1<$d%OXz.;>wwX:&%=;izut#0: +ooi%d8h8&#3O=sz6=@-syoq",
"%o+#yhoq+<5>X&<e=;==sw3>8Xwp3>+3>wX.%69O$@>-qy w;X>%+<w>h2juuXs;",
"O-7+q<+u$1$iq*;3X$0 >7ww.#5<X t1i#yo;i@p>izq;755--uj --+55hs7hi;"
};
