/* XPM */
static char *_e64d319e53146fddd8578f3d2430886YOBFZuJkdM6xxu7Z[] = {
/* columns rows colors chars-per-pixel */
"64 64 239 2 ",
"   c #050302",
".  c #0B0804",
"X  c #130D04",
"o  c #17130A",
"O  c #1D1A12",
"+  c #211C12",
"@  c #322A17",
"#  c #352D1A",
"$  c #363122",
"%  c #463A18",
"&  c #443B26",
"*  c #59471B",
"=  c #6E5E11",
"-  c #55671A",
";  c #5A6D1C",
":  c #5D741C",
">  c #5F791C",
",  c #646D1E",
"<  c #766517",
"1  c #62751F",
"2  c #627C1E",
"3  c #7D771C",
"4  c #544828",
"5  c #544C34",
"6  c #675628",
"7  c #655639",
"8  c #5F7420",
"9  c #77642B",
"0  c #637521",
"q  c #657C22",
"w  c #6A7D24",
"e  c #6E7E28",
"r  c #747D29",
"t  c #6F6033",
"y  c #776737",
"u  c #73694A",
"i  c #726953",
"p  c #95710D",
"a  c #A97605",
"s  c #8B7629",
"d  c #8E7530",
"f  c #887335",
"g  c #887948",
"h  c #867955",
"j  c #65831E",
"k  c #68861F",
"l  c #67881D",
"z  c #698A1F",
"x  c #668222",
"c  c #6B8424",
"v  c #6D8B24",
"b  c #6E8429",
"n  c #6F8B28",
"m  c #718626",
"M  c #718C26",
"N  c #72852A",
"B  c #738C2A",
"V  c #7A8928",
"C  c #798D2D",
"Z  c #6F9022",
"A  c #739325",
"S  c #759924",
"D  c #75932A",
"F  c #79942D",
"G  c #779928",
"H  c #7B9B2C",
"J  c #788931",
"K  c #7B8E32",
"L  c #7C9431",
"P  c #7E9B32",
"I  c #7EA02D",
"U  c #B3850C",
"Y  c #BB8819",
"T  c #86882C",
"R  c #9B8728",
"E  c #819A2F",
"W  c #9A9229",
"Q  c #848C33",
"!  c #8B8B38",
"~  c #978637",
"^  c #839434",
"/  c #889436",
"(  c #819C33",
")  c #979539",
"_  c #A98A29",
"`  c #B68B28",
"'  c #A7942A",
"]  c #B99629",
"[  c #A68932",
"{  c #A48B3C",
"}  c #B88F39",
"|  c #A79336",
" . c #B89736",
".. c #BC9B3C",
"X. c #81A22F",
"o. c #82A231",
"O. c #B1A23B",
"+. c #C9950E",
"@. c #C28910",
"#. c #CA9613",
"$. c #DBAA1B",
"%. c #EABA19",
"&. c #C59928",
"*. c #C29C37",
"=. c #CBA22E",
"-. c #D6AA29",
";. c #DEB325",
":. c #DEB32B",
">. c #C9A637",
",. c #CBA53B",
"<. c #D3A934",
"1. c #D9AD34",
"2. c #D3AD3D",
"3. c #D9B235",
"4. c #DAB23B",
"5. c #E7B929",
"6. c #E2B533",
"7. c #E5BA35",
"8. c #E4B937",
"9. c #E5BB3B",
"0. c #E9BE3C",
"q. c #F4C51D",
"w. c #F4C728",
"e. c #EBC035",
"r. c #EBC23B",
"t. c #F2C630",
"y. c #F6CA36",
"u. c #F6CC3B",
"i. c #948F4D",
"p. c #AA984C",
"a. c #BA9D45",
"s. c #B39948",
"d. c #92A44A",
"f. c #A8A549",
"g. c #BDA147",
"h. c #A8AB55",
"j. c #B9A456",
"k. c #968B65",
"l. c #948C72",
"z. c #A79B6A",
"x. c #A69D78",
"c. c #B9A96A",
"v. c #B5B96C",
"b. c #B0AC71",
"n. c #B6A876",
"m. c #C19E47",
"M. c #C4A443",
"N. c #CBA642",
"B. c #CCAA44",
"V. c #C3A54B",
"C. c #CAAB4A",
"Z. c #D3AD43",
"A. c #D1AD4B",
"S. c #CEB04E",
"D. c #D5B145",
"F. c #DAB647",
"G. c #D3B24C",
"H. c #DDBA4B",
"J. c #C8AA55",
"K. c #CCB35A",
"L. c #D4B454",
"P. c #D7B957",
"I. c #DDBB53",
"U. c #E5BB45",
"Y. c #E5BC44",
"T. c #E9BE44",
"R. c #E4BC4A",
"E. c #E2BD52",
"W. c #E0BE5E",
"Q. c #CAAD63",
"!. c #CDB367",
"~. c #D3B767",
"^. c #CAB573",
"/. c #C8B578",
"(. c #BDC176",
"). c #DBC55F",
"_. c #EBC245",
"`. c #E8C44A",
"'. c #EBC44B",
"]. c #F5CB43",
"[. c #F9CE42",
"{. c #F3C948",
"}. c #F4CB4C",
"|. c #F9D044",
" X c #FAD24C",
".X c #E5C154",
"XX c #ECC453",
"oX c #E4C35C",
"OX c #EAC759",
"+X c #ECCA5C",
"@X c #F3CD53",
"#X c #F3CE5B",
"$X c #F9D253",
"%X c #F8D357",
"&X c #F5D15B",
"*X c #DCC46B",
"=X c #C8C577",
"-X c #D9C379",
";X c #ECCB63",
":X c #E7C769",
">X c #F1CD62",
",X c #F1CF68",
"<X c #F4D364",
"1X c #FBD966",
"2X c #F3D36C",
"3X c #EDCD71",
"4X c #E7CB7A",
"5X c #EED27C",
"6X c #F4D573",
"7X c #F4D578",
"8X c #B5AD8C",
"9X c #C6B98A",
"0X c #C1BDB0",
"qX c #C8C485",
"wX c #D8C684",
"eX c #DCCC8C",
"rX c #D4C799",
"tX c #E3CF89",
"yX c #EAD285",
"uX c #F5DB87",
"iX c #E6D494",
"pX c #FBE385",
"aX c #FCE797",
"sX c #D1CAAC",
"dX c #E5D9A9",
"fX c #F1DFA2",
"gX c #F4E8B1",
"hX c #DBD8C9",
"jX c #E1DDC8",
"kX c #E1DFD0",
"lX c #E9E5CC",
"zX c #F5ECC7",
"xX c #FCF2C7",
"cX c #EFEAD5",
"vX c #F8F4DA",
"bX c #F0EDE3",
"nX c #FAF7E7",
"mX c #FCFBF7",
"MX c #FDFCF4",
/* pixels */
"H v A A S I I S z j n c c B D n l v x 2 l v H n x c j l v A A l z S D X.o.F 2 2 A G A n c v v M j > l v l j z A B G v v A B n D ",
"H H G Z G H H S l 2 j x j x x x x v x 2 x x F D B B b c n B B v A M D H A l x v F H B F H A A M x 2 2 > 2 v D D D v j b j n B D ",
"F H H I G G H S z l j x j c n x v F H F F F F H ( H D n G M D L B B n v n z A H D P ( ( F n n n x v v 2 > j c A A n l c b A F H ",
"A S I X.x 2 G S z l v n M A F A F P o.H X.H G F G F B M H G F L B F D B n A I P F F P P M x x v v v H B l j 2 v A D N F F M n Z ",
"j v G I x x G S Z v v B b c M v A v x M H H S S x c q M d.d.v.=XqXqX(.b.d.P H F v D ( o.F v q n F v F B M v c B b q b D F F v x ",
"b v A G v j z v 2 v v B x q b q j v x x v v A S A L h.eXtXQ.i.g h h k.k.z.n.v.d.B B ( P H D N F L n v F H A D L F b k v A G v v ",
"D G G z l 2 j : ; x v G A n b q x A F G A v v F v.iX^.g 7 x.jXbXbXnXvXcXzXzX9Xn.n.d.J D G D A F H n N n F F M C N A G n N H v A ",
"M A A l j v v j 2 l v n M A v c w b F A v G h.yX4Xg 7 sXbXnXMXMXnXnXnXvXxXxXxXgXfXn.b.( F F D v A q q N D B M B B n x n n M Z A ",
"M M F v v v v x x z z n n v l q 1 m H G ( =X5XK.6 8XbXmXmXMXnXjX8Xb.z.^.-X5XpXpXaXaXtXc.( H A j j q q B D F N D D c : b x v G H ",
"M B L n n v v G M S A M c v j j l M A ( *X6Xg.y hXMXmXMXnXsXi g -X4XyX7X2X<X$X X X%X1X6Xj.d.D j : q x D H H L ( P D N N x j G S ",
"v B B n B v D A M F F B x v M A v M ( :X,Xa.h cXmXmXMXjXu y ^.yXyX5X5X3X>X}.].t.w.y.u.|.}.s.K q x x l n n M P P D F F x j 2 G G ",
"F D D B F B B M M B H G B c x x q C ).#Xa.g cXMXmXnX8X6 p.4XyXyX5X3X:X:XXX_.r.5.w.w.w.t.[.T.{ K M x v v v x D F D F G x : 2 F F ",
"H D D F F P F G B A F D B M 2 ; N K.&XB.g lXMXMXbXz.9 V.3X3X3X:X:X:X3X6X>X@X].w.%.%.%.w.t.].F.~ N v v n x w n F H D G v x b D C ",
"n B F B D F F F D G G b m F c 2 f.+XR.9 sXnXnXvXb.j.S.:X,X:XW.oXXX9.6.8._.}.[.y.w.q.%.5.t.].}.S.! c n B x x n v n c A A M c n b ",
"x A F F B n D n v A M M B F F / OX'.f 8XvXnXcXb.wXL.oX+XoXF.1.&.` ` ` ` Y #.%.w.y.y.u.e.0.'.@XoXs.J b M v B D n x c n D n n x x ",
"H G v D D v B n v x n N D F F H.$XM.h zXvXzXz./.P.OXXXE.<.&.[ / / Q ! ) } ` @.+.6.}.$X@X'.XX+X>XI.! b B A G D L F F M b q M q q ",
"o.A z v x 2 n F v v B n A A f.@X'.y sXxXzXn.c.L.R.XXU.&.` Q B D F B B C / [ *.&.Y 1.#X<X<XoXoX;X;XV.J q B H F F H H A x 1 c M M ",
"o.D A v j 2 n F A v M v M E H.}...k.zXxXqXk.~.4._.T.&.' ^ b M F D D M b B V | *.&.Y H.<X6X2XoXoX;XI.! q M D B B F D M x q n D v ",
"H G A G v x x M A v v v x O.]._.y rXxXdXg 9X,.9.r.=.' F v v A F n Z c c b b B ) M.&.` +X6X7X;XI.+XOXa.N M F n n n c B B n x D k ",
"j v v A M A F D F A v A c 4.].g.i.gXgXg k.Q.4.0.:.` C v z v A v v x x v M B B C | N.&.,.2X7X2XG.E.+XL.Q v D D B c q b b c x M x ",
": v v B G S F D c 2 x A ) r._.9 n.gXx.4 ^.*.9.8.] V x b M n M l v x 2 c n N B L ! ..2.&.:X7X6XS.A.OXE.{ B D B M q b x 2 x b v c ",
"j G G A H G F n q : x F >.r.D.t iXiX4 i.J.<.0.<.R q n M v c b > b b w c w c N K K _ B.1.4.7X7XJ.} R.'.M.L F B M x n v N M e 2 M ",
"j v A A F D A M B B x F 3.r.| j.uXi.% -X*.3.9.] Q b L F v M c 2 n e b c 8 N N w N T ..F.-.>X7Xp.s D.'.D./ D b M c x j b F N 2 x ",
"v A A x n B D F ( H x / 6.r.s oX*X% u eX=.9.1.R A c M v v B n x : 0 0 2 : m b 1 w V | G.6.'.5Xf * ,.'.F.! v n B c 2 2 j M F q : ",
"2 z v n x B F P o.o.F O.8.3.| OXf o l.-X<.0.=.Q M q 0 2 v j c q - ; : : b b 2 0 b D [ N.4.r.3X6 % ..'.R.[ x n B v x x j x M q ; ",
"x j v A x G H H F A G 2.r.>.g.S.@ O 9X~.:.8.] B m C F c 2 : x 2 1 0 2 2 D c q q C F W M.H.5.*X# & ..R.XX..c c q v v n B F M x x ",
": : v v j v H G M j M 3.r.~ J.d . $ dXC.6.:.R n B C D B 1 > l j n q 1 q B B B F ^ F T ..L.6.g.O $ g.F.XXM.D Z x k n D H o.H D L ",
": 0 M A F G F G v 2 V :.e.s L.9   5 dX,.8.1.T b C M x x 2 j A v A ; - 0 q N C D F D ^ ..L.1. .@ + j.Z.XXB.M n x x B B F B b N L ",
": c M v D F v v v 2 T ;.8.9 P.6   i dX,.9.=.^ F D M M v n v b M c : ; w c C b M v n ^ ..L.4. .% O c.Z.'.2.V D c F F B B C b b x ",
"2 M B x F X.S A v z W ;.3.d I.* . k.iX2.9.>.F G M M c n F q : 2 v M w 0 B D n c : : C ..K.Z.=.4 O /.Z.`.2.V x c A n B N N c q 2 ",
"M b b n F H I v 2 2 W ;.<.~ G.* X z.iX2.T.] n c M D c c F 2 v B H v 2 : M c x c q q N  .K.Z.,.4 + /.D._.2.F v M v 0 m M b n x x ",
"D H H F F F v v > 2 ' ;.>.{ D.% o n.eX2.R. .x 2 c B q q q c G ( C q 0 x v n N C L B N s.K.A.B.4 @ 9XD._.2.^ c x 2 : 1 c B P N c ",
"o.E S A l A v v v k ' ;.=.{ B.% o 8XeX2.R._ 0 b b c q B B B H ( 2 q c b H G c q n n B a.!.Z.B.4 # wXZ.'.Z.m 2 2 x A A M H L L D ",
"A v v v : j v H G v W :.=.{ B.% . x.eX2.R._ 0 M B B N n D B F H 0 0 w ; c D B x c q C g.~.N.M.$ & wX2._.,.M v v D A v b n x n F ",
"A z l 2 ; : z H S j W 4.N.{ B.%   l.wX2.U._ q c c q N b N C N B b B N b x n B x b q Q V.~.2.s.O 5 -X4._.>.b c n F A c e b n G ( ",
"M A v l j x l l l j T D.B.~ B.%   h wX,.U.] 2 e B N b B L F b x c B q q 2 n L D n b ! J.~.,.p.O u ~.4.0. .: q x v D M N B C L D ",
"l c D F B x l l k > r Z.F.d N.*   u eX,.Y. .N C L N x C m N b c A v q v j q B H H B | J.~.G.n.+ k.A.9.9.R 0 c B F C e B F D B q ",
"v 2 q D F A A Z A > w B.H.d M.6   4 eX*.Y.>.T F N w N K b b N q M v c H x q C L D N a.Q.J.4X8X# ^.<.8.:.s q b C L L N N n D H G ",
"A l k G F H A A G v m N.H.~ M.9 . # wX..U.1.W n b N N N e e e e c l : 2 : ; 0 c x Q J.!.B.fXx.4 K.1.8.-.T b c N N N N B q v G ( ",
"D v A A v D 2 2 c v x ..H.A.M.s . O c.a.4.8.' b b n q e q e b w b x j 2 2 : x n x | J.Q.L.zXi y M.9.9.] J N n B N N N C n D F F ",
"L b v l 2 l 2 2 2 k 2 | F.I.G.~ o . g J.=.9.&.V q c q N e N e N B B M n B x x q C V.!.V.iXcX5 i.,.T.8.R N c q b C C e b N F F M ",
"( b b l l v v n q v k / G.E.I.g.@   $ j.] 9.-.W b B b n c B N C B D b c B b b : { J.!.C.zXsX5 s.F._.4.) b x : q b N b b b B M x ",
"^ D A M F S v M M M v F B.E.oXoXt . o f ` 3.6.] C A v n b F B q c c B M e q q r J.!.m.wXnXl.u B.Y.T.Z.Q b n n b q e b q q b c 2 ",
"L H G M F G v B M n B M a.I.oX;XoXy o % R &.5.-.| B v x q F N q 0 x M G 2 2 b j.~.J.s.cXhX5 s.U.T.9.S.C x n A v 2 m N q q b m q ",
"m c A v G G k j x v M n ! G.oX;X<X:Xs.6 s ` 6.6.&.) D M q b b N c c D H j x f.~.!.[ sXnXl.f D.T.0.Y.f.B x c c l q b w q q b N q ",
"q 2 c k v v k j x v D v B V.I.;X2X2X<X;XL.2.8.8.1. .d.L b w : c N c F B b f.~.Q.[ 9XnX0X4 ..Y.0.0.P.^ b c w q > 2 N w N b b N 0 ",
"x j x j : 2 x v c n F M D f.G.oX,X2X<X<X<X&X'.9.9.<...d.C w 2 A M c C K h.~.J._ /.nXkX7 [ U._.0.'.f.b N b n x : 2 m C N b N C e ",
"j z v v q x v x b B G v n ^ C.I.oX2X2X<X2X2X<X'.Y.U.,.*.p.! J ( F ^ p.K.K.} d n.nXlXh { R._.T._.P.B q N C L b w n C C N M N ^ C ",
"2 l v D n n D n B F F M c b ) G.I.;X2X6X6X7X2X>X.X.XE.<.*. .a.g.V.V.N.*.` } rXvXjXk.g.E.`._.{..X) b N q w b c q B C N M m B ( C ",
"x x v v 2 c B D D M v M v j b g.G.E.;X6X7X6X6X6X2X.X.XT.4.=.&.&.Y Y &.,.*XgXxXdXj.oXOX'.`.'.#Xj.w b c ; q c c c B C b v m C F e ",
"A c v v j M B B A v v q v v q Q M.Z.R.;X2X2X2X6X2X<X'.T._.T.6.:.9._.<XuXaXaXuX7X>X'._._.}.#XK.K b b : - c c N B B K N b b N b q ",
"M c A v v D n c M A v q n v 2 c ! ,.<.Y.@X<X<X<X&X&X@X'.T._.r.e.r.{.@X%X<X<X#X+X'.r.r.}.@XP.C 2 c B 0 : c b N c n L C b e e q q ",
"v c Z Z A l 2 q N F n c B v x 2 q )  .<.9.@X&X&X$X$X$X}.{.0.8.5.e.r._._.XXXXXXXX_.r.[.}.I.^ n 2 x c b n N N b c x b b b 0 0 q q ",
"l v v v A j x n n A x q n v D c c N ~ _ &.6.{.@X X X|.|.[.].u.5.5.0.`.`.'.`.XX@X}.u.].H.^ b N q q x x M C N 0 c q c x j : w x j ",
"q x x n L G v M b M e q c n A n B e w r p #.$.5.u.[.u.u.[.|.u.y.u.@X#X#X&X&X&X$X[.{.C.N 2 2 c > 2 x j j w 0 0 b c n q j x c c c ",
"j j 2 x D G x q e w w q q c b q q b c q e p U +.$.t.u.u.u.[.u.u.|.$X&X$X$X$X$X}.Y.O.F x 2 2 v x 2 q x c 0 0 c c v B w 1 : 2 : b ",
"v 2 2 A A G v b e N B x 2 : q 2 0 w c 0 w N 3 p U +.;.5.r.].[.|. X$X X].]._.8.*.T c D x 2 b v D q q M b q 1 q q v D N w q q 2 N ",
"b : : B n B B c q B M x x : 1 q b N n c c b N 1 = p a U +.$.$.5.5.5.5.$.#.Y 3 q v z v l x q 2 c q c c M b x b q x N e e e x x F ",
"b : q c b B B e q q q q q w c x b c 2 x v b b 0 , , , < p p p p p p p 3 m c 2 j j 2 x n b : : 2 x c n v j 0 q : : q 0 b b c c N ",
"A l 2 q N C B b q b b c q q q q j 2 : > 2 2 w b w 0 q w 2 2 > x 2 1 - ; b c x v 2 : q c N 2 1 q q x M z k q b 0 q w 0 2 q 0 q c ",
"n n x x N B G A c v v 2 j j : : x x : : : : q N N 0 1 N c 2 x v w ; ; b b M n M l 2 b x M M 2 q q c A j l 2 2 w N b b x : b v c ",
"n D v v b N F Z v z 2 : 2 k j l v c v 2 ; : : : 0 1 q m c x v 2 : - 0 F B F B v v v c 2 c B b w w c n j v v ; ; N A M q : N c q ",
"c n n M B b b x x l 2 : q x l l v x v v : 1 : : w q q x 2 2 v 2 : 1 q c c B D v l v 2 q x B b q 2 q 2 x v j 1 : w M b 0 0 q : : ",
"v c b n x x x 0 j z j : q b 2 2 2 l A n q w 0 1 c b 2 j q n H v : M B n > : M x : ; - 8 q c x 2 q q 0 e b x q x 2 2 q ; e w ; : "
};
