/* XPM */
static char *_d50dc9e07a84e7ea1d56d9ff18a1e0fzrOdgg52Qf85UppX[] = {
/* columns rows colors chars-per-pixel */
"64 64 256 2 ",
"   c #FDFDFC",
".  c #65841D",
"X  c #F6C876",
"o  c #6F8E28",
"O  c #6A8A22",
"+  c #708629",
"@  c #6F8B23",
"#  c #709320",
"$  c #6C8421",
"%  c #667A1E",
"&  c #6F8F21",
"*  c #142C7D",
"=  c #6C8927",
"-  c #145EC7",
";  c #637E24",
":  c #738D2C",
">  c #678720",
",  c #1661CB",
"<  c #688127",
"1  c #1454BB",
"2  c #799A2A",
"3  c #6A8528",
"4  c #74942B",
"5  c #6C7E24",
"6  c #62811F",
"7  c #6B8D20",
"8  c #5F731C",
"9  c #5F771E",
"0  c #78922E",
"q  c #6C8721",
"w  c #15266B",
"e  c #719127",
"r  c #1351B8",
"t  c #2098E0",
"y  c #76892B",
"u  c #144EB3",
"i  c #758F27",
"p  c #678A1B",
"a  c #739625",
"s  c #759325",
"d  c #FFFEFE",
"f  c #1E94DF",
"g  c #677F1F",
"h  c #1C8CDB",
"j  c #5D7A18",
"k  c #5F7D1B",
"l  c #799D29",
"z  c #1457BF",
"x  c #819F34",
"c  c #6A811F",
"v  c #78982D",
"b  c #152260",
"n  c #FCDFA4",
"m  c #7E9A2F",
"M  c #82A330",
"N  c #132875",
"B  c #708329",
"V  c #637B24",
"C  c #5A7719",
"Z  c #1D90DC",
"A  c #6E8A2D",
"S  c #145BC3",
"D  c #7DA02A",
"F  c #597118",
"G  c #1C89D8",
"H  c #1673CF",
"J  c #739B1F",
"K  c #637022",
"L  c #7C9432",
"P  c #121D58",
"I  c #134AAA",
"U  c #657521",
"Y  c #799627",
"T  c #155BB8",
"R  c #546D18",
"E  c #1361C1",
"W  c #1783D6",
"Q  c #1886D8",
"!  c #1645A0",
"~  c #6C7827",
"^  c #798E2C",
"/  c #77952F",
"(  c #1565C7",
")  c #FEE1A7",
"_  c #166FC7",
"`  c #50651A",
"'  c #14378B",
"]  c #729032",
"[  c #167AD0",
"{  c #113F96",
"}  c #1E2873",
"|  c #133184",
" . c #788532",
".. c #86A33A",
"X. c #1665CE",
"o. c #C56E4F",
"O. c #177FD4",
"+. c #FADA9B",
"@. c #243067",
"#. c #618116",
"$. c #F8F9F8",
"%. c #5E6C1C",
"&. c #1665C0",
"*. c #176BD1",
"=. c #FCDDA0",
"-. c #F7CD80",
";. c #F7D595",
":. c #E59E5D",
">. c #176ED1",
",. c #E2A66A",
"<. c #5A671E",
"1. c #0D1647",
"2. c #597125",
"3. c #F2C177",
"4. c #7A9737",
"5. c #475B43",
"6. c #BD6950",
"7. c #688C48",
"8. c #D48353",
"9. c #26509E",
"0. c #F9D28B",
"q. c #136AC8",
"w. c #375046",
"e. c #4C5B1E",
"r. c #7EA32A",
"t. c #839736",
"y. c #7B8E35",
"u. c #587417",
"i. c #1778D4",
"p. c #2C9DE0",
"a. c #F3F4F2",
"s. c #D99865",
"d. c #1B2A4C",
"f. c #688232",
"g. c #60792B",
"h. c #85AA2E",
"j. c #46A7DB",
"k. c #1854AD",
"l. c #233A46",
"z. c #344459",
"x. c #8AAB39",
"c. c #303558",
"v. c #4488A0",
"b. c #915557",
"n. c #2A7ED1",
"m. c #3B85D4",
"M. c #336B8D",
"N. c #E3AF75",
"B. c #737D2F",
"V. c #7FA62E",
"C. c #7F9C3A",
"Z. c #846161",
"A. c #4C8D67",
"S. c #CD7B51",
"D. c #667FB0",
"F. c #3079BC",
"G. c #5B70A1",
"H. c #1D3376",
"J. c #63B3CF",
"K. c #D9DCDE",
"L. c #744A59",
"P. c #1E4385",
"I. c #587039",
"U. c #363E70",
"Y. c #6CB9E4",
"T. c #98C0B0",
"R. c #4B7651",
"E. c #7F8BA9",
"W. c #38548E",
"Q. c #2D5AA9",
"!. c #A9AEB8",
"~. c #AFB9C5",
"^. c #4397D8",
"/. c #58A4DC",
"(. c #FBE7BE",
"). c #5C4355",
"_. c #5D7528",
"`. c #356BB4",
"'. c #5E844C",
"]. c #4F6948",
"[. c #E4E7EC",
"{. c #8DA0BD",
"}. c #E5EDEA",
"|. c #465C96",
" X c #8AB5E0",
".X c #E6C088",
"XX c #CCC079",
"oX c #F8EDD6",
"OX c #EFCA8F",
"+X c #C78C60",
"@X c #B9DBC8",
"#X c #6A9E74",
"$X c #B57B5C",
"%X c #D5E2EC",
"&X c #EDB36A",
"*X c #507EBF",
"=X c #B7C0CE",
"-X c #34A2DF",
";X c #C0C8D3",
":X c #86C4E5",
">X c #A46054",
",X c #D2D5D5",
"<X c #799852",
"1X c #414986",
"2X c #69A3DC",
"3X c #6BB0E2",
"4X c #F7E1B4",
"5X c #5CB4E2",
"6X c #359DD2",
"7X c #89AA5F",
"8X c #F0B96E",
"9X c #8F796A",
"0X c #7CB790",
"qX c #919399",
"wX c #9C6960",
"eX c #1E6EB9",
"rX c #50948D",
"tX c #A4CCB4",
"yX c #497F6B",
"uX c #4F817D",
"iX c #406760",
"pX c #7BBFE4",
"aX c #5E4E73",
"sX c #2C72CA",
"dX c #6990CB",
"fX c #CFEAD7",
"gX c #1F78CD",
"hX c #B6AC69",
"jX c #E0D1AA",
"kX c #82A262",
"lX c #285A72",
"zX c #2F4791",
"xX c #6D617B",
"cX c #7FAFAE",
"vX c #868C3B",
"bX c #92C9E0",
"nX c #719D4C",
"mX c #6AA788",
"MX c #C5CDB7",
"NX c #24754B",
"BX c #BADBEA",
"VX c #2181C9",
"CX c #3D7D9B",
"ZX c #ACB974",
"AX c #9FDAAE",
"SX c #97AF66",
"DX c #6FD682",
"FX c #AFCFE9",
"GX c #9F9750",
"HX c #47D563",
"JX c #7BA178",
"KX c #759BCA",
"LX c #807D84",
"PX c #348FAF",
"IX c #BB977A",
"UX c #4FCD65",
/* pixels */
"D > a # J D r.2 p 6 0 < = ] 4.o 6 7 6 V p = x.< . c c p 7 e # 6 > 2 e ..V.l C j # a # @ ; > @ s k R . a . k O v = l O > a ] = 4 ",
"2 M a p 4 D r.J #.C k $ k > 6 ; . a k 9 < 9 l L y 0 + 6 3 0 o > Y : e D 4 . ; 3 2 x < / x 4 4 7 q C k F k O / e v & j i j = @ & ",
"v l l V.l J V.J p p #.< % < / 6 7 # h.i L 4.4 m h.v ^ @ M @ i m : o O > o > & ..f.x.....4 e A i c s 4 9 C . > s @ = . q g D m x ",
"# J r.x.k F J J 7 . O = v s 2 s 2 ..x.M x M 7 4 l ..y.$ M 2 4 m O / / e 3 e h.x 2 / 4.x o C O 7 . p h.] . . 9 & J m : L t.$ $ & ",
"j $ 2 h.j g D J # e 3 0 + + e 7 # : 8 & h.r.J l j % %.y Y p ..7X7X..v > : : x 4 7 > x h.4 e F $ x 3 m @ @ & < ] 5 K % m Y Y : 6 ",
"f.3 & D # k > e u.a 6 L 8 U + % 9 & 9 6 p . J l # ^ % @ x.7XMX%XBX@XT.JXkX<X<X7.<XSXZXZXSXSX<Xv x > p l x e v C.C.+ c . e D & o ",
"4.x 2 p p u.#.` e.: $ 2 a @ + 8 q a D D a e #.p 2 s / kXT.bX:XY.Y.Y.Y.Y.J.J.J.J.J.:XBX}.%XY.v.] M = L g 0 m & y.$ # D 3 B M p Y ",
"q a & #.j O # #.k . O q : v & A ~ ~ v # q 2 & q x kXT.:X5X-Xp.t t t p.-X-Xj.j.-Xj.pXBX:Xm.- Q.A D 9 9 + 0 ^ + y.3 o . = @ @ & 7 ",
"@ c m s p o . > < O . : q O O V %.5 ..l s D x.7XT.bX5Xp.t t t t t t t Z O._ &.sX XFX/.&.9.9.9.k . g V / : L < 0 4 < e.: % 7 D V.",
"o i x < = 7 7.nXe D e y q & j . #.i s e Y C.0XbXpXj.t t t t t t t Z gXE z z F. X3XsX9.aX>XZ.W.; e.c j / x x L ..x 4 + 0 c 8 J J ",
"> i + A ] > uXF.v.#X<X] 9 O a l > s s p nXcX:XY.p.f t f t t t f O.( S z S dXpX^.T 1Xb.6.8.wXW.2.< @ 6 A < O ..C.A v 2 % O j V.# ",
"/ 2 e O 2 = iX1 E _ F.v.A.'.A c 8 % # 7.J.pX5Xp.f t t f f t Z H - S r Q.2X3Xn.9.aX6.o.8.:.Z.lX/ a k e = o k ] 4.O / v O R R x 0 ",
"..A a m v x '.Q.1X9.S - ( F.v.uX<X] #XJ.5X5Xp.f f f f f f h >., S ! Q.2X^.q.zXb.6.o.8.:.:.xX`.0XkXe $ = g ; o v x o M . < y m y ",
"= i l 3 0 4 A |.b.Z.zXI z z 1 k.W.v.6Xj.j.p.f f f f f f Z H X., k.eX^.h E 1Xb.o.o.8.:.&X,.aX_ -Xj.cX<Xv . ; A O 0 V 4 J a c A g ",
"j a 2 x O < a M.xXS.>XU.' { N P P.G f p.p.f f f f f f Z i.*.*.[ h Z [ - 1Xb.o.o.S.:.8X8X:.1X( i.Q p.J.JX> ] 4.3 _.; O v : e < + ",
"h.J > 4 2 a e R.|.8.8.>XU.N w ' W Z f t Z Z Z Z f f Z W H H W f h H , I L.6.o.S.:.3.X 3.s.zXX.*.*.H h j.mXx : C.m r.q + %.0 9 8 ",
"M a p 3 % R : 7.|.+X:.8.6.).| _ Z h Z Z Z Z Z Z Z Z G [ [ Q Z Z i., , ! L.6.o.:.3.;.-.X +X! T k.u u T gX6X#X/ v 2 D 2 > F $ 0 0 ",
"x = 4 o . 2./ C.M.qX3.:.8.wXQ.W h h h h h h h h Z h W O.W h Z Z G i.>.- ! aX+X8X+.+.;.X 9X! w N * H.H.U.`.v.] = 2 / o 9 9 i i & ",
"V.D a l & g j @ R.D.0.&X:.G._ G G G G G G h h h h G Q Q G h h h h G Q O.H E G.!.n n +.3.xX{ l.5.'.2._._.A 4.A A A V 4 x : % m . ",
"V #.g Y O a l Y 7.G.jX0.IX`.H Q Q Q Q Q Q G G G G Q Q Q G G W i.>.>.>.>.*.*.X.sX{.jX=.N.W.{ z.].7.. e # 7 4.0 4 < K @ O $ j a g ",
"R 4 A = V.J / Y $ M.!.+.D.X.*.H O.W W W W W Q Q Q Q Q Q W i.>.m.2X X X X2Xm.*.X., F.qXLXT { * * P.M.A.] < 0 @ s U + g %.5 5 # @ ",
". r.l O D & 2 q 8 iXD.!.*X2X2Xm.>.i.O.O.W W W W W W W O.>.n.3XpX3X/.^.^./.3X/.n.X., , ( S | * ! [ t -XJ.7Xm y y g.] @ ^ y ~ 8 i ",
"k = # # 2 Y & $ 4 4.M.KX/./.Y.:X^.*.i.O.O.O.O.O.O.O.O.>.m.3X/.n.E I { { ! T n.^.n.X.X.X.1 | I , X.i.h p.j.#XB y q c k 5 x : F $ ",
"# a 2 k + y.: ] x M uXn.k.I T ^./.gX*.[ [ [ [ [ [ [ >.n./.Z q.! ' W.G.G.W.| { ( m.gX, X.1 I , X., , X.O.t -X#X] > 9 9 6 i M ; R ",
"C O = ] ; o / x x.h.rXk.! `.Q.T m.n.X.H [ [ [ [ [ >.H ^.G &.' 1XE.=X,X,X;XE.' { ( n.X., - - , , , , , , H f 6X#Xe ; c 6 9 : ; <.",
"3 6 @ C.C l r.l o e CX! D.~.{.Q.&.H ( q.H H H H _ *.G G &.' |.!.K.a.    $.K.D.| 1 ( , , , , , , , , , , - H f 6XnXo A i x + k q ",
"9 8 @ # 9 O D 2 e ; M.! {.~.~.D.k.q.( q._ H _ H q.[ G _ { W.~.}.          $.=XzXI - - - - - - - - - - - - - H f rX= i M x.x./ C.",
"9 %.+ # r.# / ..q u.M.9.!.=X~.!.Q.( ( ( _ _ _ q.q.VXH I P.!.}.$.$.    $.    [.G.I - - - - - - - - - - - - - - [ 6X7.+ m ^ U $ x ",
"F = s & i 2 k < & R 9.9.;X}.;X~.D.T ( ( q.&.q.( _ H T ' E.[.$.T.T.$.        a.D.u S S S S S 1 I u 1 S - - - S , G rX^ : y B @ . ",
"; i i j L h.J # & w.{ 9.%Xd [.=X{.k.( E &.E ( ( _ &.{ |.,X  }.A.A.fX        $.dXr S S S S S u N * | ' ! 1 S S S >.PXy.B : 5 U g ",
": g g + 4.m h.& 2.@.{ 9.K.  $.K.cX9.E E E T &.&.q.I ' !.$.d @XNXNXtXd       a.dX1 z z z z z 1 N b w N N | ! 1 S - VX7.@ 3 A 5 $ ",
"0 V.V.L v v > & ` * | ! ;Xd   a.T.lXr E T k.E &.T ' G.[.  d tXw.l.0X        a.*Xz z z z z z z { P b w w N N | I z _ R.$ i ..B g ",
"x.M 2 4 k a 7 o 5.N b { {.d     @XlX{ E k.I E E { P.=X    d tXl.d.mX    $.  [.`.1 z z z z z z r P.5.I.].w.z.@.* ! E A.@ M L L i ",
"s c 7 # R #.> M w.N b P.D.$.    fXiXw { { ' T I | E.a.    d tXl.d.mX$.    d FXT 1 1 1 1 1 1 1 z VXrX4.i > O g.5.U.! yXq @ j q v ",
"J p p j ` u.O M z.N w H.`.%Xd   a.yXd.H.H.W.| * |.K.      d @Xw.z.tX$.      KXr 1 1 1 1 1 1 1 S q.[ v.f.7 > 3 O ] ].].5 q q l r.",
"o a & #.6 A p j @.w w N k. Xd   $.0XNXrXE.~.G.|.=X$.        fXA.yXfX$.  d %X`.r r r 1 1 1 1 1 T &.&._ v.I.8 ; . q s : B L ^ x i ",
"#.3 v D e g.p _.@.w w w.M.*Xa.  d AXUXAX[.a.K.K.$.          }.DXHXAX    $.dXu r r r r r r r r r z E E _ CX2.3 0 m ^ U L t.0 : F ",
"q F _./ v a J g.@.c.5.@ R.T  Xd [.qXA.T.d                   $.DXHX@Xd   ;XE.qXG.k.r r r r r r r r 1 E E _ uX= ^ t.t.B B = s M m ",
"4 p 6 l a M # 6 ].; $ c g.CX*X%X,XE.xXc.{.K.(.(.oXa.      $.  @X0X}.  oXjX+.0.OXqXr r u u u u u u u r T E F.'.B y ~ y v u.@ 2 ..",
"0 q l & O 2 9 R . # . O : MXK.,XoXLX1.1.1.c.9X;.n =.4XoXa.$.  $.a.oX(.) OXN.0.0..X9.I I u u u u u u u r T &.v.^ 5 B.B.y.@ 2 s Y ",
"C.$ . p u.#.u.% F 7 j C <.jX0.-.-.OX9Xc.1.1.).OX=.=.=.+.n 4X(.(.4X) n ) .Xs.;.+.,.U.| | ' { ! u u u u u r E eX7.L y.~ 5 @ v m @ ",
"..% + . . 7 7 0 8 s . : C ZXN.8XX X 3.$X>X$XN.0.0.;.;.+.+.+.=.=.n n ) +.,.OX) 0.$XH.* * * * | ' ! I u u u T _ A.+  .+ : 3 4 A g ",
"L 4 & o l r.p @ 4 e : & . t.s.,.X X ,.o.s.3.-.-.-.-.-.0.0.0.;.;.+.+.;.N..X) +.s.L.* * * * * * * * ' ! I u u q.v.2.% + % U 5 $ j ",
"x ..r.. L x . v i g y.O > A 9X,.&XX 8X&X3.X X X X -.X -.-.-.-.-.-.3.N..X+.;.s.>X@.N N N * * * * * * * ' I I T F._.s ^ U %  .y $ ",
"+ % a 7 r.D > j 5 & O y 5 <.c.Z.:.,.X X X X X X X X X X X X X X 3.3.-.0.3.+X6.).b b b b b w w N * * * * ' ! u gX'. .K % g y y 5 ",
"% R A 7 # # . #.c o / 7 7 e.@.w Z.+Xs.8XX X X X 3.X 3.X X X X X X X 3.,.S.6.L.b b b b w w } } } } } * * N | ! eX'.y % m q 5 B %.",
"7 . ; k ` k . & q 3 v O 4.f.@.w b ).$X8.s.&X3.X X X X X X X X 3.8X,.8.o.6.L.b P P P P P P P d.z.z.@.} } N N ' T R.$ ^ B $ ^ vX~ ",
"#.7 & s 8 c = 9 $ @ D @ < 7.@.w b P c.Z.$XS.8.s.:.,.N.N.,.,.s.8.S.o.6.>Xc.1.1.1.1.1.1.P P b d._.C.I.w.U.} N * 9.7.L ^ y @ + .. .",
"C 6 O v / A 4.+ i m m y q I.@.b b b P d.K  .+XS.o.o.o.o.o.o.o.o.6.b.).d.1.1.P P P P b w w w w I.3 c Y R 5.U.N P.7.^ 5 0 B c x y.",
"3 < 0 o R ; 0 L 4 @ 6 ^ # 2.@.b b b l.e.9 ~ t.B.).L.b.b.b.b.L.).c.b b d.w.l.b P b w w w w w } w.R q : e.5 < 5.z. .y % @ y t.t.~ ",
"v > 6 a 9 4 o ^ s & 7 U @ A c.b d.w.K $ 0 L U V d.P N * } } N N * | | | iXI.5.w.@.} } } w w w z.+ : ` ` y $ : : A 0 + + 5 B $ % ",
"o ; J & o m ] ; A e # F s & z.d.e.8 0 m L ; 4 < c.* U.L.Z.wX9XE.*X&., X.>.F.uX7.f.5.@.} } w w c.< t.%.` 3 3 y % o C.y B 5 B.$ % ",
"O ; # 7 a 6 V g.+ m e 6 e & _.<.C : 3 V L ` ].c.H.Z.o.8.,.OXn ) 4X~.m.*.*.X.>.F.yXg.I.z.} } w c.f.; A o o : + + V B ~ + K K U c ",
"> # # & s C ; o 7 4 9 U 0 7 v 3 3 B ~ ` f.5.H.H.wX8.s..Xn ) ) ) ) (.,Xm.*.S I , *.M.].2.5.@.} l.V $ % 4 t. .K 3 V 3 c $ %.3 < 6 ",
"; 6 U A x 2 # : $ 0 5 ; + 3 2 > L ~ U 2.iX' * Z.8.:.;.) n n ) ) ) (.oX;XsXX.! ' z X.eXyX6 e.5.e.9 i 6 ; ~ <.%.y < @ % c O + f.A ",
"g . j % ^ M k K B U ~ 8 $ : + C g.y B R.P.* aXS.,.;.n n n n n n n ) ) 4X{.X.z N N r X.eXR.C 4 > C % . = K K = ; 7 s ; 2.` k ` f.",
"# C % 2 a J > < 5 B m g 9 <.% 6 2.5 o ` <.w.wX:.;.=.=.=.=.=.=.=.n n n ) MXsX, ' d.@.M.R.9 m > M % 5 i B 5 8 % U & / + f.; 6 C : ",
"B 8 <.L 3 y L 5 U t.: > o %.U V  .y.] = @ < vXGXhX.X;.+.=.=.=.=.n n n ) +.*X&.lXI.9 @ #.3 U 8 @ K  .% @ i $ y < $ ^ 5 5 B.V . M ",
"5 8 ; 3 + y 0 % 5 % V V 9 5 @ 6 e < u.7 4 +  .K K ~ vXGXhXXXXXXXXXXXXXhXhX7.2.k . F 3 @ y <.9 _.3 = o # g %.< R %.c K @ + = 3 A ",
"l p 9 U B.y 0 5 U $ @ @ 9 5 % c k 6 F u.. F f. .~ % $ ~ % 6 C @ ; V ` <.B ; q Y j ` ; V t.%.g.< 5 9 a p 7 % y K 5 ~ 2.9 3 ` 9 3 ",
"= o @ c  .i s l q 7 7 C > g %.F V O F F 8 R 8 y  .K <.y c g 3 A A F <.y > o 3 4 6 9 y.g.s 0 R ; 8 @ Y j p F % + : $ o $ R  .a . ",
"o v 7 & 5 B m # . 7 6 R % 7 . #./ 3 & 9 e.< 9 8 K 8 V : q 3 4 u.R e.K x o l @ o q @ + 2.< / f.~ B q & j # # <.e.y.s Y ; ` 0 = V ",
". = @ : 0 % = ; O . #.u.% q . O s C # s <.U j F B % U $ j F O C F U 9 6 3 ^ v & c Y F < ; 0 : 8 9 V 8 $ @ > 8 K ~ 0 5 K %.V <.8 ",
"# g y = g q O %.. & #.R ; i C k V 6 l o 8 + 8 9 < : g . V @ M 7 F : 0 = 9 R Y c u.R ` ; 9 y ; #.g < K B.A g g O k % ~ <. .~ %.C "
};
