/* XPM */
static char *_9e3874e3d6b4c0fe5684073e8a9bb5775ldqqxzu3hTzC4U[] = {
/* columns rows colors chars-per-pixel */
"64 64 122 2 ",
"   c #322F36",
".  c #3F3D42",
"X  c #47444A",
"o  c #48454C",
"O  c #4C4950",
"+  c #514E55",
"@  c #535057",
"#  c #5A585D",
"$  c #5E5B62",
"%  c #625F66",
"&  c #666167",
"*  c #67646B",
"=  c #6A666C",
"-  c #6D696F",
";  c #6E6B71",
":  c #716D73",
">  c #747176",
",  c #767479",
"<  c #79767B",
"1  c #7B797E",
"2  c #7E7C81",
"3  c #817D83",
"4  c #838186",
"5  c #868389",
"6  c #89868B",
"7  c #8D898E",
"8  c #908B8F",
"9  c #8E8C91",
"0  c #928D92",
"q  c #959095",
"w  c #999397",
"e  c #97939A",
"r  c #9B969B",
"t  c #9E999E",
"y  c #A19B9F",
"u  c #9E9AA1",
"i  c #A29DA3",
"p  c #A5A0A6",
"a  c #A8A2A6",
"s  c #A6A3AA",
"d  c #AAA6AC",
"f  c #ADA9AE",
"g  c #B1ABAF",
"h  c #AEABB1",
"j  c #B2AEB4",
"k  c #B4B1B6",
"l  c #B6B3B9",
"z  c #BAB5BB",
"x  c #B8B6BB",
"c  c #B9B4BA",
"v  c #B8B5BC",
"b  c #B9B7BC",
"n  c #BBB6BC",
"m  c #BCB7BD",
"M  c #B8B3B9",
"N  c #BAB8BD",
"B  c #BBB9BE",
"V  c #BDB8BE",
"C  c #BEB9BF",
"Z  c #BCBABF",
"A  c #BFB9BD",
"S  c #C0BBBF",
"D  c #BDBBC0",
"F  c #BFBAC0",
"G  c #BEBCC1",
"H  c #BFBDC2",
"J  c #C0BBC1",
"K  c #C1BCC2",
"L  c #C2BDC3",
"P  c #C0BEC3",
"I  c #C3BEC2",
"U  c #C1BFC4",
"Y  c #C3BEC4",
"T  c #C4BFC5",
"R  c #C3BDC1",
"E  c #C2C0C5",
"W  c #C3C1C6",
"Q  c #C5C0C4",
"!  c #C5C0C6",
"~  c #C6C1C7",
"^  c #C4C2C7",
"/  c #C6C0C4",
"(  c #C9C3C7",
")  c #C5C3C8",
"_  c #C7C2C8",
"`  c #C8C3C9",
"'  c #CCC6CA",
"]  c #CAC8CD",
"[  c #CDC8CC",
"{  c #CFCACE",
"}  c #CFC9CD",
"|  c #D0CBCF",
" . c #D2CCD0",
".. c #D2CDD1",
"X. c #D3CDD1",
"o. c #D3CED2",
"O. c #D4CED2",
"+. c #D4CFD3",
"@. c #D5CFD3",
"#. c #D3CDD1",
"$. c #D5D0D4",
"%. c #D6D0D4",
"&. c #D6D1D5",
"*. c #D7D1D5",
"=. c #D7D2D6",
"-. c #D6D0D4",
";. c #D8D2D6",
":. c #D8D3D7",
">. c #D9D3D7",
",. c #D8D2D6",
"<. c #D9D2D9",
"1. c #DAD3DA",
"2. c #D9D4D8",
"3. c #DAD4D8",
"4. c #DAD5D9",
"5. c #DBD4DB",
"6. c #DBD6DA",
"7. c #DCD7DB",
"8. c #DCD5DC",
"9. c #DED7DE",
"0. c #DDD8DC",
"q. c #DED9DD",
/* pixels */
"6 < ; : , , > : < , > : : : : : = = - - ; ; ; ; : - = = - - = * & , ; ; : : : - - : : : ; - - : - - = = - ; : : : : : : : : ; - ",
"f i u i i i i p i i i i i i i i i i i i i i i i i i i i i i t e 9 p i i p i p i i i p i i i i i i i i i i i i p i i i i i i i i ",
"L J L Y Y L Y ` J L L Y Y Y Y Y L L L Y Y Y L L J J J L L C j d r M z n C z J C C J L L J F J L Y L L J J J L L L L Y Y Y Y T T ",
"J J L T ! ! ! ! L L T ! ! ! T Y J J J J J J F F m C C C n j i q 5 f j j j f l k z n C C m n m C C C m n n z z z F J L L L L Y T ",
"F C C J T ! L n F J L L L J C C F F F F F C C m M z n z M j i 0 3 d j j f d j j k M z n z z z n n n n z z z M M z n C C n n C J ",
"L L J L ! _ L z L L L L J J F C L L L J F C m m l n n z m z d e 3 f l j j f l j k M z n z z n m C C F F F C C m n C J F m n C L ",
"F Y T L Y ! Y C F C C C C F J J F F F C m n z M z m z l z z d e 3 d j j f f M j j k M M l l z z n m C C F C C C n F L J n z m J ",
"z Y ` Y J L ! T m n n n m C L L L L J F C m z z J L C k l l a 0 2 d j f f j z k j l z z z z z m z m C F F F F C z C J C z l z C ",
"z C J L J F F J F C n z z m C J T L C C m m z M C z m n M z j e 3 s j j j h l j z z z z M l k k k M n C C m z M n C C m z z z m ",
"n C L L J F F J F C C m C C J L L F m n n n z l m z m n M z j e 5 f j j j f k j z z z z z l k j k M m C J F C n z n n z k k l z ",
"m F L L L J J L C C C F F J J L J C z z z z l k z M n n M m j t 5 f j j h f k j l M z z z M k j j k z n C C m n z z M k j j l z ",
"C J Y Y L J J J m C C F J J J F C n z M M M k j z M n n z C j t 4 s h f h h z z k k M z z M j j j j j k k k k j l M M k k M m J ",
"C J Y Y L F F F z n m C F F F F C n M M M M l k z M n n z C j t 3 s f f f f z z j k l M M k j j j j j j j j h f j j k k l z F Y ",
"C F L L J C C C z z n m C C F J C m z z z z z l m z m m z C j t 3 s j f f d k j k k k k k k j j k k k j j j h f f j j k l z F L ",
"m C J J C m m m m m n n m F L Y J C n n m m n z C n C m z m j t 3 p f f f d j j k k j j j j k l l l k k j j j j h j l z z n C F ",
"n C J F C n z n C C m n C J Y ! L F m m C C m n F m C C z m j r < i d f h f k j l k j j j j k l k k j j j j j j j l m C C C C C ",
"n z z l l l z n k l l Z F F F F F F G G G G G G C l l W G F Z q < i p p h d d h j k k j h h h j k k l k j h h h d j Z G L F z l ",
"l l k k k k k k k l l Z F F F F Y Y L G F C Z Z Z k k L Z Z z 9 < a a a h d h h j l l l k j j j k l l k j h d d h k l Z Z n z n ",
"Z Z n n z z l l l l n Z C F F F Y Y L G F C Z Z Z l l L Z Z l 9 2 d d d h d h j j k l v l j j j k l l k h d d d j l n n l l Z G ",
"G G G G G F Z Z l l n Z C F G G F F G G G G G L F Z Z W F G n 9 2 d h d h d h h h j l v l k j j k k l k h d d d j l Z Z l l Z L ",
"Z Z C C Z Z n z n n Z Z C F G G F F G G G G G L G F C ! F G n 6 , d h d h d h h h j l n l l k k j k k k h h h h h k n n l k l Z ",
"l l Z Z Z Z l l Z Z Z Z Z F G G Y Y G G F Z Z Z F F C W Z Z l 5 > d h d h d h h h j l n l l l l h j k k k j j j d h k l l k k k ",
"l l Z Z C Z Z z C Z Z Z Z C G G Y Y G G F C Z Z F G G W Z F l 4 ; d h a d d h h h h j k j j l l h k l l k k k k h j j k l l k j ",
"k k l Z Z Z n l Z Z Z Z Z Z G L F F G G G G G L G W Y ! F G l 5 ; d h d d d h h d d h h h h h j j k l l k k k k l k k l n Z z k ",
"Z z l k l n F L Z Z C G G G F Z ! W G F C Z G G W n W ! F ] Z 4 % a k d d d j h d h h h h h j k l k k j j k j j l k k k k l l l ",
"l l l l l Z G W F F F F G G G G G F C Z Z Z Z Z Z l W ! C _ l 4 ; d j p d d h d h h h h h j l l j j k k k l l l j k k k l l Z C ",
"Z n l l l l z n C Z Z Z Z Z F G C C G G G G G G G Z W W Z G h 5 : d h i a d d a d d d a d h h j d d h h h h k k k k l l l l Z F ",
"Z Z Z Z Z Z Z Z F G G G F G G Y l z Z F G F C Z G Z Z Z l Z d 6 : a h d d d d d k h d d d h h h d h j j j h j k z Z F Z l l z Z ",
"k k k l z Z Z F z Z G G F C C F Z F G Y W Y L G Y Z n F W L d 9 > d l l l h k n j h d d d h h h h h j j j k k k k l z l k k k l ",
"z l k j h h h h k l Z Z l l l n G G G F F F F G G C n Z F j q 1 = e u i a u i d p u u i a d d d d d a d h j k k j j k l z Z Z Z ",
"5 4 1 , : ; - - , < < , > > < 2 , , : ; - ; ; : , , ; - = # X .   + o X + O @ $ - = * = ; : ; ; > ; * - > < < , < , , 1 4 5 4 3 ",
"9 6 5 4 3 4 5 5 4 4 4 2 1 1 5 7 7 5 3 1 1 1 2 3 5 5 2 < 1 , < 4 > 4 : = < , 3 6 7 6 5 5 6 6 5 2 0 6 2 2 6 9 7 6 5 3 3 4 7 9 7 5 ",
"8 ! { { :.+.&.&.:.:.2.2.2.2.2.7.2.2.2.7.7.0.0.0.0.0.0.7.7.0.0.0.7.0.9.0.9.7.9.2.2.2.2.2.1.:.1.:.:.:.:.:.:.:.:.:. .+.+.:. .2.2.f ",
"7 L { { &. . . . . .+.+.&.&.&.&. . . . .+.+.+.&.&.&.+.+.+.+.&.&.&.&.&.&.&.&.+.+.&.&.&.&.&.+.+.+.+.+.+.+.+.+.+.+. .+.+.:. .:.:.d ",
"7 L ' '  .{  . .| |  . . . .+.+. . . . . . .&.&.+.+. . . . .+.+.&.&.&.&.&.&.+.+.+.+.+.+. . . . . . . . . . . . . .+. .&.| +.+.a ",
"7 L ' '  .{ | |  . . . .+.&.&.&.+.+.&.&.&.&.&.&.&.&.&.&.&.&.&.&.:.:.:.:.:.:.&.&.&.&.&.+.+.+.+.+.+.+.+.+.+.+.+.+. .+. .+.{  . .p ",
"7 L [ [ $.|  . . . . .+.&.&.&.&. . . . . . .+.+. . . . . . . . .+.&.&.&.&.+.+. .&.&.&.&.+.+.+.+.+.+.+.+.+.+.+.+. .+. .+.'  .| i ",
"0 ! { { &.|  . .|  . . . .+.+.&. . . . .+.+.+.+. . . . . . . . .+.+.&.&.+.+. . .+.+.+.+. . . . . . . . . . . . . . . .+.'  .| i ",
"0 ! { { &. . . .| |  . . . .+.+.&.&.&.&.&.&.&.&.&.&.&.&.&.&.&.&.&.&.:.:.:.&.&.+.+.+. . . . . . . . . . . . . . . . . .+.{  . .p ",
"0 ! { { $.|  .|  . . . .+.+.&.&.+.+.&.&.&.&.&.&.&.+.+. . .+.+.&.+.&.&.&.&.+.+. .+.+.+.+.+.+. . . . . . . . . . . . . .+.{ +. .p ",
"r C  .{ { | { |  . .|  .&.&.:.&.&.&.&.&.&.&.&.&.+.+.+.+.+.+.+.+.&.&.&.+.+.+.+.+.+.+.+.+.+.+.+.+.+.+.+.+.+.+.+.+.{ +.| +.| { ( i ",
"t C  .{ |  .{ | &.&. . .+.&.+. .&.&.&.&.&.&.&.&.+.+.+.+.+.+.+.+.&.&.&.+.+.+.+.+.+.+.+.+.+.+.+.+.+.+.+.+.+.+.+.+.{ +.{  .{ { ( p ",
"t C  .{ |  .|  .&.&. . .&.&. . .&.&.&.&.&.&.&.&.+.+.+.+.+.+.+.+.&.&.&.+.+.+.+.+.+.+.+.+.+.+.+.+.+.+.+.+.+. . . .{  .' { ' ' ' d ",
"t S  .| |  . . . . . . .&.&.&.&.&.&.&.&.+.+.+.+.+.+.+.+.+.+.+.+.&.&.&.+.+.+.+.+.+.+.+.+.+.+.+.+.+.+.+.+. . . . .{ +.' [ ' { ' f ",
"y L  .| |  . .+. . . .+.&.&.&. .&.&.&.&.+.+.+.+.+.+.+.+.+.+.+.+.&.&.&.+.+.+.+.+.+.+.+.+.+.+.+.+.+.+.+. . . . .| | +.' { ' | | g ",
"i L +.|  . . .&.&.&.&.&.&.&. .{  . . . . . . . .+.+.+.+.+.+.+.+.&.&.&.+.+.+.+.+.+.+.+.+.+.+.+.+.+.+. . . . .| |  .&.{ | { | | g ",
"i L +. . . . .&.&.&.&.&.&.&.| {  . . . . . . . .+.+.+.+.+.+.+.+.&.&.&.+.+.+.+.+.+.+.+.+.+.+.+.+.+.+. . . .| | | | &.{ | { | { f ",
"i L +. . . .+.&. . . .&.:.&.+. . . . . . . . . .+.+.+.+.+.+.+.+.&.&.&.+.+.+.+.+.+.+.+.+.+.+.+.+.+.+. . . .| | | { +.{ | { { ' d ",
"i I &.+.+.&.+.&.+.+.+.|  .&.&. .+.+.+.+.+.+.+. .+.+.+.+.+.+.+.+. . . . . . . . .+.+.+.+.+.+.+.+. . . .| | | { { { +.{ | { { ' d ",
"i I &.+.+.+.+.&. .+.+. .+.:.&.| +.+.+.+.+.+.+. .+.+.+.+.+.+.+.+. . . . . . . . .+.+.+.+.+.+.+.+. . . .| | | { { '  .{ | { | ' d ",
"i ! &.+. .+. .+.| +.+.+.+.:.+.{  . .+.+.+. . . .+.+.+.+.+.+.+.+. . . . . . . . .&.+.&.&.+.+.+.+. . . .| | | { { '  .' | | | ' d ",
"i ! &. . .+. .+.| +.+.+.&.&. .' { | +.+. . . . .+.+.+.+.+.+.+.+. . . . . . . . . . . . . . . . . . . .| | | { { ' | ' | | | ' d ",
"i I &. . . . . .| +.+.+.&.&. .' ' | +.+. .|  . . . . . . . . . . . . . .+. . . . . . . . . . . . . . .| | | { { ' | ' | | | ' a ",
"i I &. . . . .+. .+.+. .+.&. .' ' { +.+. .| |  . . . . . . . . . . . . . . . . . . . . . . . . . . . .| | | { { {  .' | | | ( i ",
"i L +. . .+. .+. .+.+.|  .+. .' ( { +.+. .{ |  . . . . . . . . . . .+.+. . . . . . . . . . . . . . . .| | | { { | +.' | | | ! y ",
"y L +. . .+. .+.+.+. .| | +. .' ! ' +.+. .{ |  . . . . . . . . . . .+. . . . . . . . . . . . . . . . .| | | { {  .+.' | | { ! t ",
"r L &. .| +. .|  . . . . . . . . . . . . . . . . . . . . . . . . . . . . . . . . . . . . . . . .| |  . . .| | { { | | +.' | ( q ",
"r L &.| | +. .|  . . . . . . . . . . . . . . . . . . . . . . . . . . . . . . . . . . . . . . . .|  . . . .| | { | | {  .' { ' w ",
"e S +.| | +. . . . . . . . . . . . . . . . . . . . . . . . . . . . . . . . . . . . . . . . . . . . . . . . .| |  .| ' | ( [ ' r ",
"q A  .{ | +. . . . . . . . . . . . . . . . . . . . . . . . . . . . . . .|  . . . . . . . . . . . . . . . . .| |  .{ ' { ( ' ' i ",
"q m  .{ { +. . . . . . . . . . . . . . . . . . . . . . . . . . . . .| | | |  . . . . . . . . . . . . . . .| | |  .{ ' { ! ' ' p ",
"q m  .[ {  . . .| | | | | | | |  . . . . . . . . . . . . . . . . . .| { { |  . .| | | | | | | | | |  . .| | { { | ' ( | ( ' { d ",
"q m | ' '  .| | | | | | | | | |  . . . . . . . . . . . . . . . . . .| { { |  . .| | | | | | | | | | | | | { { { { ' ( | ( ' { d ",
"q m | ' ' | | | | | | | | | | |  . . . . . . . . . . . . . . . . .| | { { | |  .| | | | | | | | { { | | | { { ' ' ( (  .' ' { d "
};
